<svg width="28" height="53" viewBox="0 0 28 53" fill="none" xmlns="http://www.w3.org/2000/svg">
<path d="M10.3125 38.3242C10.2083 32.8815 10.1562 28.7734 10.1562 26C10.1562 22.7969 10.2214 19.1576 10.3516 15.082C10.3776 14.0924 12.5521 13.4674 16.875 13.207C16.9531 12.9596 16.9531 12.6536 16.875 12.2891C13.4635 12.3932 10.8008 12.4453 8.88672 12.4453C7.28516 12.4453 5.01302 12.3932 2.07031 12.2891C1.96615 12.5234 1.96615 12.8294 2.07031 13.207C5.0651 13.4935 6.57552 14.1185 6.60156 15.082C6.73177 18.1419 6.79688 21.7812 6.79688 26C6.79688 30.1276 6.71875 34.2357 6.5625 38.3242C6.53646 39.2878 5.02604 39.9128 2.03125 40.1992C1.92708 40.4076 1.92708 40.7135 2.03125 41.1172C4.24479 41.0391 6.51693 41 8.84766 41C11.6211 41 14.2839 41.0391 16.8359 41.1172C16.9401 40.9089 16.9401 40.6029 16.8359 40.1992C12.513 39.9388 10.3385 39.3138 10.3125 38.3242ZM1.44531 13.9688C1.22396 13.1094 1.25 12.2695 1.52344 11.4492C2.66927 11.4492 4.21875 11.4818 6.17188 11.5469C8.13802 11.612 9.50521 11.6445 10.2734 11.6445C10.8333 11.6445 11.9141 11.6315 13.5156 11.6055C15.1172 11.5794 16.5039 11.5664 17.6758 11.5664C17.9232 12.3086 17.9362 13.1094 17.7148 13.9688C14.8372 14.2552 13.3854 14.6393 13.3594 15.1211C13.2031 18.3763 13.125 22.4844 13.125 27.4453C13.125 32.237 13.1901 35.8503 13.3203 38.2852C13.3203 38.3633 13.3529 38.4414 13.418 38.5195C13.4831 38.5977 13.5742 38.6628 13.6914 38.7148C13.8216 38.7669 13.9518 38.8255 14.082 38.8906C14.2122 38.9427 14.388 38.9948 14.6094 39.0469C14.8438 39.099 15.0391 39.1445 15.1953 39.1836C15.3516 39.2227 15.5599 39.2617 15.8203 39.3008C16.0938 39.3398 16.3086 39.3724 16.4648 39.3984C16.6341 39.4245 16.8555 39.4505 17.1289 39.4766C17.4154 39.5026 17.6107 39.5286 17.7148 39.5547C17.9362 40.2839 17.8971 41.0846 17.5977 41.957C12.793 41.8529 9.8763 41.8008 8.84766 41.8008C8.14453 41.8008 5.6901 41.8529 1.48438 41.957C1.15885 41.0586 1.15885 40.2188 1.48438 39.4375C4.3099 39.151 5.73568 38.7669 5.76172 38.2852C5.91797 35.0299 5.99609 30.9349 5.99609 26C5.99609 21.8073 5.93099 18.181 5.80078 15.1211C5.77474 14.6393 4.32292 14.2552 1.44531 13.9688Z" fill="black"/>
<circle cx="23.5" cy="37.5" r="4.5" fill="#FAB248"/>
</svg>
